<?xml version="1.0" standalone="no"?>
<!DOCTYPE svg PUBLIC "-//W3C//DTD SVG 20010904//EN"
 "http://www.w3.org/TR/2001/REC-SVG-20010904/DTD/svg10.dtd">
<svg version="1.0" xmlns="http://www.w3.org/2000/svg"
 width="356.000000pt" height="356.000000pt" viewBox="0 0 356.000000 356.000000"
 preserveAspectRatio="xMidYMid meet">
<metadata>
Created by potrace 1.11, written by Peter Selinger 2001-2013
</metadata>
<g transform="translate(0.000000,356.000000) scale(0.100000,-0.100000)"
fill="#000000" stroke="none">
<path d="M0 1780 l0 -1780 1780 0 1780 0 -2 167 -3 168 -334 87 c-183 48 -335
89 -338 91 -2 3 12 67 32 144 20 76 97 370 171 653 74 283 137 523 140 533 3
9 12 17 20 17 17 0 17 -1 4 -34 -7 -20 -6 -26 5 -26 7 0 15 10 17 23 2 14 10
22 23 22 21 0 22 -5 10 -42 -10 -34 11 -28 23 7 8 22 15 28 27 23 13 -4 15
-13 11 -34 -7 -36 11 -39 20 -4 4 16 13 25 26 25 16 0 18 -5 12 -35 -4 -21 -2
-35 4 -35 5 0 12 14 16 30 6 31 12 35 34 22 9 -7 10 -15 3 -35 -8 -21 -8 -27
4 -27 7 0 15 10 17 22 2 13 11 24 22 26 17 4 18 0 13 -32 -6 -36 6 -50 17 -20
3 9 6 423 6 920 l0 904 -1780 0 -1780 0 0 -1780z m2770 1273 c0 -32 -68 -763
-75 -809 l-5 -32 -998 -1 -997 -2 -43 423 c-24 233 -43 426 -42 430 0 5 357 9
793 11 435 1 921 3 1080 5 l287 2 0 -27z m-385 -1242 c13 -25 24 -39 25 -30 0
24 29 32 56 15 24 -16 71 -106 81 -156 8 -41 23 -48 23 -12 0 34 20 55 47 50
24 -4 42 -59 42 -130 1 -64 -37 -296 -77 -471 l-27 -119 -204 -69 c-112 -38
-207 -66 -212 -63 -17 10 -106 169 -128 228 -13 36 -26 102 -32 170 -11 124
-26 265 -31 287 -4 18 38 14 70 -7 44 -29 81 -152 83 -279 0 -40 2 -46 9 -27
5 12 14 145 20 295 5 149 14 285 18 301 12 44 37 56 63 29 19 -18 22 -37 29
-149 4 -72 15 -157 25 -194 l19 -64 14 34 c23 55 27 194 8 273 -21 90 -20 113
5 131 30 20 46 11 74 -43z m-1277 -283 c21 -21 13 -66 -22 -136 -18 -37 -38
-83 -44 -102 -12 -38 -22 -190 -12 -190 10 0 67 102 83 150 9 25 25 77 37 117
29 100 88 144 104 77 6 -23 -19 -165 -50 -287 -21 -83 -66 -329 -60 -334 2 -2
16 31 30 74 50 148 109 223 176 223 37 0 43 -9 24 -37 -8 -14 -38 -90 -65
-171 -28 -81 -64 -173 -81 -205 -35 -64 -152 -197 -174 -197 -8 0 -101 40
-206 89 l-191 90 2 138 c2 158 17 369 31 443 14 74 49 148 73 156 27 8 50 -22
44 -58 -2 -16 -2 -28 -1 -28 2 0 21 26 43 59 42 62 94 111 116 111 8 0 20 -9
28 -20 13 -19 15 -18 47 15 36 38 49 42 68 23z"/>
</g>
</svg>
